# xmcd
#
# Track frame offsets:
# 150
# 14342
# 31580
# 52412
# 67492
# 86287
# 102817
# 121152
# 139607
# 157157
# 171630
# 187462
# 203650
# 223759
# 241384
#
# Disc length: 3552 seconds
#
#
# Revision: 0
# Processed by: cddbd v1.5.2PL0 Copyright (c) Steve Scherf et al.
# Submitted via: FreeRIP 2.945 
#
DISCID=e30dde0f
DTITLE=Refla - Caminhos
DYEAR=1900
DGENRE=Pagode
TTITLE0=Bebemorar
TTITLE1=Caminhos
TTITLE2=Meu Anjo
TTITLE3=Teu Beijo
TTITLE4=Lápis de cor
TTITLE5=Sereia
TTITLE6=Mais e mais
TTITLE7=Alimenta meu sonho
TTITLE8=Um novo dia
TTITLE9=Vida particular
TTITLE10=Fascínio
TTITLE11=Outra pessoa
TTITLE12=Aquelas noites
TTITLE13=Subita paixão
TTITLE14=Pequena Princesa - Meu céu, meu sol, meu mar
EXTD=Muito Bom
EXTT0=
EXTT1=
EXTT2=
EXTT3=
EXTT4=
EXTT5=
EXTT6=
EXTT7=
EXTT8=
EXTT9=
EXTT10=
EXTT11=
EXTT12=
EXTT13=
EXTT14=
PLAYORDER=
